<svg xmlns="http://www.w3.org/2000/svg" width="24" height="24" viewBox="0 0 24 24" fill="none">
    <rect width="24" height="24" fill="white"/>
    <path d="M18.9355 8.10638C18.4194 6.57447 17.3871 5.55319 15.8387 4.91489V3H14.5484V4.78723H14.0323C12.6129 4.78723 11.4516 5.29787 10.4194 6.31915L9.90323 6.82979L8.09677 6.19149C7.70968 6.06383 7.32258 5.93617 6.80645 5.93617C6.03226 5.93617 5.25806 6.19149 4.6129 6.70213C3.83871 7.21277 3.45161 7.85106 3.19355 8.48936C2.93548 9.38298 2.93548 10.1489 3.19355 11.0426C3.58065 11.9362 3.96774 12.5745 4.6129 12.9574C4.09677 14.8723 4.48387 16.5319 5.90323 17.9362C6.93548 18.9574 8.09678 19.4681 9.51613 19.4681C10.1613 19.4681 10.5484 19.4681 10.9355 19.3404C11.7097 20.3617 12.7419 21 14.0323 21C14.4194 21 14.9355 21 15.3226 20.8723C16.0968 20.617 16.6129 20.1064 17.129 19.4681C17.6452 18.7021 17.9032 18.0638 17.9032 17.2979C17.9032 16.7872 17.9032 16.4043 17.7742 16.0213L17.129 13.9787L17.9032 13.4681C18.9355 12.4468 19.4516 11.0426 19.3226 9.51064H21V8.10638H18.9355ZM6.41935 11.0426C5.64516 10.6596 5.3871 10.1489 5.64516 9.38298C5.90323 8.61702 6.41936 8.3617 7.19355 8.61702L11.3226 10.1489C9.25806 11.1702 7.70968 11.4255 6.41935 11.0426ZM14.5484 18.1915C13.7742 18.4468 13.2581 18.1915 12.871 17.4255C12.4839 16.1489 12.7419 14.617 13.7742 12.5745L15.3226 16.5319C15.5806 17.4255 15.3226 17.9362 14.5484 18.1915ZM16.0968 11.4255L15.3226 9.38298V9.25532L14.9355 8.87234H14.8065L12.7419 8.10638C13.2581 7.7234 13.7742 7.46808 14.4194 7.46808C15.0645 7.46808 15.7097 7.7234 16.2258 8.23404C16.7419 8.74468 17 9.25532 17 9.89362C16.7419 10.2766 16.4839 10.9149 16.0968 11.4255Z" fill="#777777"/>
</svg>